<svg width="10" height="10" viewBox="0 0 10 10" fill="none" xmlns="http://www.w3.org/2000/svg">
<path d="M7.28964 3.67187C7.57058 3.46874 7.77991 3.1818 7.88757 2.85226C7.99523 2.52272 7.99568 2.16753 7.88886 1.83772C7.78204 1.50791 7.57344 1.22043 7.29302 1.01659C7.0126 0.81274 6.6748 0.70301 6.32811 0.703156H3.67186C3.32517 0.702998 2.98735 0.812724 2.70692 1.01657C2.42649 1.22042 2.21788 1.5079 2.11106 1.83772C2.00424 2.16755 2.00469 2.52274 2.11237 2.85229C2.22004 3.18184 2.42939 3.46878 2.71034 3.67191C2.50011 3.82373 2.32893 4.0233 2.21087 4.25419C2.09281 4.48507 2.03125 4.74069 2.03125 5.00001C2.03125 5.25933 2.09281 5.51495 2.21087 5.74584C2.32893 5.97673 2.50011 6.17629 2.71034 6.32812C2.48291 6.49278 2.30157 6.71306 2.18366 6.96788C2.06575 7.2227 2.01522 7.50352 2.03693 7.78346C2.05863 8.0634 2.15183 8.33308 2.3076 8.56668C2.46338 8.80028 2.67651 8.98999 2.92659 9.11763C3.17668 9.24527 3.45535 9.30658 3.73591 9.29568C4.01648 9.28479 4.28955 9.20205 4.52898 9.0554C4.76841 8.90874 4.96619 8.70308 5.10338 8.4581C5.24056 8.21311 5.31256 7.93702 5.31249 7.65624V6.28702C5.48373 6.42246 5.6803 6.52233 5.89066 6.58078C6.10101 6.63923 6.32093 6.65508 6.53749 6.62739C6.75406 6.59971 6.96291 6.52905 7.1518 6.41957C7.34069 6.31009 7.50582 6.16398 7.63748 5.98983C7.76915 5.81567 7.86471 5.61697 7.91856 5.40539C7.9724 5.19381 7.98345 4.9736 7.95105 4.75769C7.91865 4.54178 7.84345 4.33452 7.72988 4.14806C7.6163 3.9616 7.46662 3.7997 7.28964 3.67187ZM7.34374 2.34378C7.34343 2.61291 7.23643 2.87094 7.0462 3.06132C6.85597 3.2517 6.59803 3.35889 6.3289 3.35941L6.32811 3.35937L6.32659 3.35941L5.31249 3.35937V1.32816H6.32811C6.59738 1.32847 6.85553 1.43557 7.04593 1.62597C7.23633 1.81637 7.34343 2.07452 7.34374 2.34378ZM2.65624 2.34378C2.65655 2.07452 2.76365 1.81637 2.95405 1.62597C3.14445 1.43557 3.4026 1.32847 3.67186 1.32816H4.68749V3.35937H3.67112C3.40199 3.35886 3.14404 3.25168 2.9538 3.06131C2.76356 2.87094 2.65656 2.61291 2.65624 2.34378ZM2.65624 4.99999C2.65655 4.73086 2.76355 4.47282 2.95379 4.28244C3.14403 4.09206 3.40198 3.98487 3.67112 3.98437L3.67186 3.98441H4.68749V6.01558L3.67186 6.01562C3.4026 6.01531 3.14445 5.9082 2.95405 5.7178C2.76365 5.52741 2.65655 5.26926 2.65624 4.99999ZM3.67186 8.67183C3.53796 8.67266 3.40522 8.647 3.28127 8.59634C3.15732 8.54567 3.04462 8.47099 2.94964 8.3766C2.85466 8.28221 2.77929 8.16997 2.72785 8.04634C2.67642 7.92271 2.64994 7.79013 2.64994 7.65622C2.64994 7.52232 2.67642 7.38974 2.72785 7.26611C2.77929 7.14247 2.85466 7.03023 2.94964 6.93584C3.04462 6.84145 3.15732 6.76678 3.28127 6.71611C3.40522 6.66544 3.53796 6.63979 3.67186 6.64062H4.68749V7.65624C4.68717 7.9255 4.58006 8.18364 4.38966 8.37403C4.19926 8.56442 3.94112 8.67152 3.67186 8.67183ZM6.32811 6.01562C6.05984 6.01417 5.80304 5.90663 5.61378 5.71649C5.42452 5.52635 5.31818 5.26905 5.31798 5.00077C5.31778 4.73249 5.42373 4.47503 5.61271 4.28461C5.80168 4.09418 6.05832 3.98626 6.32659 3.98441H6.3289C6.59716 3.98617 6.85383 4.094 7.04287 4.28436C7.2319 4.47471 7.33795 4.73213 7.33784 5.0004C7.33774 5.26867 7.2315 5.52601 7.04232 5.71622C6.85314 5.90643 6.59638 6.01406 6.32811 6.01562Z" fill="#F4F4F4"/>
</svg>
