<svg width="11" height="11" viewBox="0 0 11 11" fill="none" xmlns="http://www.w3.org/2000/svg">
<path d="M5.4957 0.819626C2.83916 0.818552 0.6875 2.96914 0.6875 5.62353C0.6875 7.72256 2.0335 9.50684 3.90801 10.1621C4.16045 10.2255 4.12178 10.0461 4.12178 9.92363V9.09111C2.66406 9.26191 2.60498 8.29727 2.50723 8.13613C2.30957 7.79883 1.84229 7.71289 1.98193 7.55176C2.31387 7.38096 2.65225 7.59473 3.04434 8.17373C3.32793 8.59375 3.88115 8.52285 4.16152 8.45303C4.22275 8.20059 4.35381 7.975 4.53428 7.7999C3.02393 7.5292 2.39443 6.60752 2.39443 5.51182C2.39443 4.98008 2.56953 4.49131 2.91328 4.09707C2.69414 3.44717 2.93369 2.89072 2.96592 2.80801C3.59004 2.75215 4.23887 3.25488 4.28936 3.29463C4.64385 3.19902 5.04883 3.14853 5.50215 3.14853C5.95762 3.14853 6.36367 3.20117 6.72139 3.29785C6.84277 3.20547 7.44434 2.77363 8.02441 2.82627C8.05557 2.90898 8.28975 3.45254 8.0835 4.09385C8.43154 4.48916 8.60879 4.98223 8.60879 5.51504C8.60879 6.61289 7.975 7.53564 6.46035 7.80205C6.59009 7.92963 6.6931 8.08179 6.76337 8.24963C6.83364 8.41747 6.86976 8.59763 6.86963 8.77959V9.98809C6.87822 10.0848 6.86963 10.1804 7.03076 10.1804C8.9332 9.53906 10.3028 7.74189 10.3028 5.62461C10.3028 2.96914 8.1501 0.819626 5.4957 0.819626Z" fill="#F4F4F4"/>
</svg>
